<?xml version="1.0" encoding="utf-8"?>
<!-- Generator: Adobe Illustrator 27.0.1, SVG Export Plug-In . SVG Version: 6.00 Build 0)  -->
<svg version="1.1" xmlns="http://www.w3.org/2000/svg" xmlns:xlink="http://www.w3.org/1999/xlink" x="0px" y="0px"
	 viewBox="4489 7.4 700 700" style="enable-background:new 4489 7.4 700 700;" xml:space="preserve">
<style type="text/css">
	.st0{fill:url(#SVGID_1_);}
	.st1{fill:#282828;}
	.st2{fill:url(#SVGID_00000124839941903993899180000008343254042485219994_);}
	.st3{fill:#FFFFFF;}
	.st4{fill:url(#SVGID_00000024710368204647200770000006750469338201846710_);}
	.st5{fill:url(#SVGID_00000173142278322765621190000017378542563920787590_);}
	.st6{fill:url(#SVGID_00000172409273029605036420000017786030490364912809_);}
	.st7{fill:none;stroke:#FF7900;stroke-width:34.5339;stroke-linecap:round;stroke-linejoin:round;stroke-miterlimit:10;}
	.st8{fill:url(#SVGID_00000142889443676259704150000017691969757963818168_);}
	.st9{fill:url(#SVGID_00000176725805985003724490000017720338894877928071_);}
	.st10{fill:#FFFFFF;stroke:#000000;stroke-width:3;stroke-miterlimit:10;}
</style>
<g id="Layer_2">
	<linearGradient id="SVGID_1_" gradientUnits="userSpaceOnUse" x1="2868.1204" y1="83.156" x2="2865.8877" y2="684.6073">
		<stop  offset="0" style="stop-color:#333333"/>
		<stop  offset="1" style="stop-color:#000000"/>
	</linearGradient>
	<rect x="2515.2" y="7.4" class="st0" width="703.8" height="703.8"/>
	<rect x="3452" y="7.4" class="st1" width="699.4" height="699.4"/>
	
		<linearGradient id="SVGID_00000137850430847560921530000017604737840107224245_" gradientUnits="userSpaceOnUse" x1="1547.095" y1="-397.2287" x2="4152.0215" y2="-397.2287">
		<stop  offset="0" style="stop-color:#000000"/>
		<stop  offset="3.315305e-02" style="stop-color:#000000"/>
		<stop  offset="1" style="stop-color:#000000"/>
	</linearGradient>
	
		<rect x="1547.1" y="-749.1" style="fill:url(#SVGID_00000137850430847560921530000017604737840107224245_);" width="2604.9" height="703.8"/>
	<g>
		<path class="st3" d="M6029.2,588.6c-10,0-19.4-3.8-26.6-10.6c-0.4-0.4-0.9-0.9-1.3-1.3l-24.8-24.8c-7.4-7.1-11.7-16.7-11.9-27
			c-0.3-10.3,3.5-20.1,10.6-27.6c0.4-0.4,0.8-0.9,1.3-1.3c0,0,136.3-137.1,136.3-137.1c0.1-0.4,0.1-1.3,0.1-2.1c0-0.6,0-1.5,0-2.1
			c0,0-136.2-137.1-136.2-137.1c-7.4-7.1-11.7-16.7-11.9-27c-0.3-10.3,3.5-20.1,10.6-27.6c0.4-0.4,0.9-0.9,1.3-1.3l24.8-24.8
			c7.4-7.7,17.3-11.9,27.9-11.9c10,0,19.4,3.8,26.7,10.7c0.4,0.4,0.8,0.8,1.2,1.2l148.3,147.4c22.7,22.7,34.2,47.1,34.2,72.5
			c0,25.4-11.5,49.7-34.3,72.4l-148.3,147.4C6049.7,584.4,6039.8,588.6,6029.2,588.6z"/>
		<path d="M6029.2,130.5c8.2,0,16.5,3,22.9,9.2c0.4,0.4,0.8,0.7,1.1,1.1l148.4,147.5c15.4,15.4,32.6,38.6,32.6,68.6
			s-17.2,53.1-32.6,68.5l-148.4,147.5c-6.5,6.8-15.2,10.3-24,10.3c-8.2,0-16.4-3-22.8-9.1c-0.4-0.4-0.8-0.8-1.2-1.2l-24.9-24.8
			c-13.3-12.6-13.8-33.6-1.1-46.9c0.4-0.4,0.8-0.8,1.1-1.1l136.3-137.2c1.7-1.7,1.7-3.4,1.7-6c0-2.6,0-5.1-1.7-6l-136.2-137.1
			c-13.3-12.6-13.8-33.6-1.2-46.8c0.4-0.4,0.8-0.8,1.2-1.2l24.9-24.9C6011.8,134,6020.5,130.5,6029.2,130.5 M6029.2,119.5v11V119.5
			C6029.2,119.5,6029.2,119.5,6029.2,119.5c-12.2,0-23.5,4.8-31.9,13.6l-24.7,24.7c-0.5,0.5-1,1-1.4,1.4
			c-16.7,17.6-16.1,45.5,1.4,62.3L6107,356.8l-134.4,135.3c-0.5,0.5-1,0.9-1.4,1.4c-8.1,8.5-12.4,19.7-12.2,31.5
			c0.3,11.7,5.1,22.7,13.6,30.8l24.7,24.7c0.5,0.5,1,1,1.4,1.4c8.2,7.8,19,12.2,30.4,12.2c12,0,23.6-5,31.9-13.6l148.3-147.3
			c23.8-23.8,35.9-49.5,35.9-76.4c0-26.9-12-52.6-35.8-76.3l-148.3-147.4c-0.4-0.5-0.9-0.9-1.4-1.4
			C6051.5,123.8,6040.6,119.5,6029.2,119.5L6029.2,119.5z"/>
	</g>
	<g>
		<g>
			<path class="st3" d="M5731.5,587.5c-0.8,0-1.6-0.2-2.4-0.5c-2.3-1.1-3.5-3.6-3-6.1l40.2-195.1c0.3-1.6-0.2-3.1-1.4-4.5
				c-1.4-1.4-3.6-2.3-5.9-2.3H5669c-2.1,0-4.1-1.2-5-3.2c-0.9-1.9-0.6-4.2,0.8-5.9l206.6-247c1.1-1.3,2.6-2,4.2-2
				c0.8,0,1.6,0.2,2.4,0.5c2.3,1.1,3.5,3.6,3,6.1l-40.2,195.2c-0.3,1.6,0.2,3.1,1.4,4.4c1.4,1.5,3.6,2.4,5.9,2.4h89.9
				c2.1,0,4.1,1.2,5,3.2c0.9,1.9,0.6,4.2-0.8,5.9l-206.6,247C5734.6,586.8,5733.1,587.5,5731.5,587.5z"/>
			<path d="M5875.6,126.5l-40.2,195.2c-0.7,3.3,0.4,6.7,2.8,9.3c2.5,2.6,6.1,4.1,9.9,4.1h89.9l-206.6,247l40.2-195.1
				c0.7-3.3-0.4-6.7-2.8-9.3c-2.5-2.6-6.1-4.1-9.9-4.1H5669L5875.6,126.5 M5875.6,115.5c-3.2,0-6.3,1.4-8.4,3.9l-206.6,247
				c-2.7,3.3-3.3,7.8-1.5,11.7c1.8,3.9,5.7,6.3,10,6.3h89.9c0.9,0,1.6,0.3,1.9,0.6l-40.1,194.7c-1,4.9,1.5,9.9,6,12.1
				c1.5,0.7,3.2,1.1,4.8,1.1c3.2,0,6.3-1.4,8.4-3.9l206.6-247c2.7-3.3,3.3-7.8,1.5-11.7c-1.8-3.9-5.7-6.3-10-6.3h-89.9
				c-0.8,0-1.5-0.3-1.9-0.6l40.1-194.7c1-4.9-1.5-9.9-6-12.1C5878.8,115.9,5877.2,115.5,5875.6,115.5L5875.6,115.5z"/>
		</g>
	</g>
	<g>
		<path class="st3" d="M1813.2-1957.3c-5.5,0-10.8-2.1-14.8-5.9c-0.3-0.2-0.5-0.5-0.8-0.8l-13.8-13.7c-8.5-8.1-8.9-21.7-0.7-30.3
			c0.2-0.3,0.5-0.5,0.7-0.7l75.7-76.1c0.1-0.1,0.1-0.7,0.1-1.2c0-0.3,0-0.8,0-1.1c0,0-75.7-76.2-75.7-76.2
			c-8.5-8.1-8.8-21.7-0.7-30.3c0.2-0.3,0.5-0.5,0.8-0.8l13.8-13.8c4-4.2,9.6-6.6,15.5-6.6c5.5,0,10.8,2.1,14.8,5.9
			c0.2,0.2,0.5,0.5,0.7,0.7l82.4,81.9c12.6,12.6,19,26.1,19,40.3c0,14.1-6.4,27.6-19,40.2l-82.4,81.9
			C1824.6-1959.7,1819.1-1957.3,1813.2-1957.3z"/>
		<path d="M1813.2-2211.8c4.6,0,9.1,1.7,12.7,5.1c0.2,0.2,0.4,0.4,0.6,0.6l82.4,81.9c8.6,8.6,18.1,21.4,18.1,38.1
			c0,16.7-9.6,29.5-18.1,38.1l-82.4,81.9c-3.6,3.8-8.5,5.7-13.3,5.7c-4.6,0-9.1-1.7-12.7-5.1c-0.2-0.2-0.4-0.4-0.6-0.6l-13.8-13.8
			c-7.4-7-7.7-18.7-0.6-26c0.2-0.2,0.4-0.4,0.6-0.6l75.7-76.2c0.9-0.9,0.9-1.9,0.9-3.3c0-1.4,0-2.9-0.9-3.3l-75.7-76.2
			c-7.4-7-7.7-18.7-0.6-26c0.2-0.2,0.4-0.4,0.6-0.6l13.8-13.8C1803.5-2209.9,1808.4-2211.8,1813.2-2211.8 M1813.2-2217.9
			C1813.2-2217.9,1813.2-2217.9,1813.2-2217.9c-6.8,0-13,2.7-17.7,7.5l-13.7,13.7c-0.3,0.3-0.5,0.5-0.8,0.8
			c-4.5,4.7-6.9,11-6.7,17.5c0.2,6.5,2.8,12.6,7.5,17.1l74.7,75.2l-74.7,75.2c-0.3,0.3-0.5,0.5-0.8,0.8c-9.3,9.8-8.9,25.3,0.8,34.6
			l13.7,13.7c0.3,0.3,0.5,0.5,0.8,0.8c4.6,4.4,10.6,6.8,16.9,6.8c6.7,0,13.1-2.8,17.7-7.5l82.4-81.9c13.2-13.2,19.9-27.5,19.9-42.4
			c0-15-6.7-29.2-19.9-42.4l-82.4-81.9c-0.2-0.3-0.5-0.5-0.8-0.8C1825.6-2215.5,1819.6-2217.9,1813.2-2217.9L1813.2-2217.9z"/>
	</g>
	<g>
		<g>
			<path class="st3" d="M1647.8-1957.9c-0.4,0-0.9-0.1-1.3-0.3c-1.3-0.6-1.9-2-1.7-3.4l22.3-108.4c0.2-0.9-0.1-1.7-0.8-2.5
				c-0.8-0.8-2-1.3-3.3-1.3h-49.9c-1.2,0-2.3-0.7-2.8-1.8c-0.5-1.1-0.3-2.3,0.4-3.3l114.8-137.2c0.6-0.7,1.5-1.1,2.3-1.1
				c0.4,0,0.9,0.1,1.3,0.3c1.3,0.6,1.9,2,1.7,3.4l-22.3,108.4c-0.2,0.9,0.1,1.7,0.8,2.5c0.8,0.8,2,1.3,3.3,1.3h49.9
				c1.2,0,2.3,0.7,2.8,1.8c0.5,1.1,0.3,2.3-0.4,3.3L1650.1-1959C1649.6-1958.3,1648.7-1957.9,1647.8-1957.9z"/>
			<path d="M1727.9-2214l-22.3,108.4c-0.4,1.8,0.2,3.7,1.6,5.2c1.4,1.4,3.4,2.3,5.5,2.3h49.9l-114.8,137.2l22.3-108.4
				c0.4-1.8-0.2-3.7-1.6-5.2c-1.4-1.4-3.4-2.3-5.5-2.3h-49.9L1727.9-2214 M1727.9-2220.1c-1.8,0-3.5,0.8-4.7,2.2l-114.8,137.2
				c-1.5,1.8-1.9,4.4-0.8,6.5c1,2.2,3.2,3.5,5.5,3.5h49.9c0.5,0,0.9,0.2,1,0.3l-22.3,108.2c-0.6,2.7,0.8,5.5,3.3,6.7
				c0.8,0.4,1.8,0.6,2.7,0.6c1.8,0,3.5-0.8,4.7-2.2l114.8-137.2c1.5-1.8,1.9-4.4,0.8-6.5c-1-2.2-3.2-3.5-5.5-3.5h-49.9
				c-0.5,0-0.9-0.2-1-0.3l22.3-108.2c0.6-2.7-0.8-5.5-3.3-6.7C1729.7-2219.9,1728.8-2220.1,1727.9-2220.1L1727.9-2220.1z"/>
		</g>
	</g>
	<g>
		<path class="st3" d="M1836.7-1522.9c-5.5,0-10.8-2.1-14.8-5.9c-0.3-0.2-0.5-0.5-0.8-0.8l-13.8-13.7c-8.5-8.1-8.9-21.7-0.7-30.3
			c0.2-0.3,0.5-0.5,0.7-0.7l75.7-76.1c0.1-0.1,0.1-0.7,0.1-1.2c0-0.3,0-0.8,0-1.1c0,0-75.7-76.2-75.7-76.2
			c-8.5-8.1-8.8-21.7-0.7-30.3c0.2-0.3,0.5-0.5,0.8-0.8l13.8-13.8c4-4.2,9.6-6.6,15.5-6.6c5.5,0,10.8,2.1,14.8,5.9
			c0.2,0.2,0.5,0.5,0.7,0.7l82.4,81.9c12.6,12.6,19,26.1,19,40.3c0,14.1-6.4,27.6-19,40.2l-82.4,81.9
			C1848.1-1525.3,1842.6-1522.9,1836.7-1522.9z"/>
		<path d="M1836.7-1777.4c4.6,0,9.1,1.7,12.7,5.1c0.2,0.2,0.4,0.4,0.6,0.6l82.4,81.9c8.6,8.6,18.1,21.4,18.1,38.1
			c0,16.7-9.6,29.5-18.1,38.1l-82.4,81.9c-3.6,3.8-8.5,5.7-13.3,5.7c-4.6,0-9.1-1.7-12.7-5.1c-0.2-0.2-0.4-0.4-0.6-0.6l-13.8-13.8
			c-7.4-7-7.7-18.7-0.6-26c0.2-0.2,0.4-0.4,0.6-0.6l75.7-76.2c0.9-0.9,0.9-1.9,0.9-3.3c0-1.4,0-2.9-0.9-3.3l-75.7-76.2
			c-7.4-7-7.7-18.7-0.6-26c0.2-0.2,0.4-0.4,0.6-0.6l13.8-13.8C1827-1775.5,1831.9-1777.4,1836.7-1777.4 M1836.7-1783.5
			C1836.7-1783.5,1836.7-1783.5,1836.7-1783.5c-6.8,0-13,2.7-17.7,7.5l-13.7,13.7c-0.3,0.3-0.5,0.5-0.8,0.8
			c-4.5,4.7-6.9,11-6.7,17.5c0.2,6.5,2.8,12.6,7.5,17.1l74.7,75.2l-74.7,75.2c-0.3,0.3-0.5,0.5-0.8,0.8c-9.3,9.8-8.9,25.3,0.8,34.6
			l13.7,13.7c0.3,0.3,0.5,0.5,0.8,0.8c4.6,4.4,10.6,6.8,16.9,6.8c6.7,0,13.1-2.8,17.7-7.5l82.4-81.9c13.2-13.2,19.9-27.5,19.9-42.4
			c0-15-6.7-29.2-19.9-42.4l-82.4-81.9c-0.2-0.3-0.5-0.5-0.8-0.8C1849.1-1781.1,1843-1783.5,1836.7-1783.5L1836.7-1783.5z"/>
	</g>
	<g>
		<g>
			<path class="st3" d="M1671.3-1523.5c-0.4,0-0.9-0.1-1.3-0.3c-1.3-0.6-1.9-2-1.7-3.4l22.3-108.4c0.2-0.9-0.1-1.7-0.8-2.5
				c-0.8-0.8-2-1.3-3.3-1.3h-49.9c-1.2,0-2.3-0.7-2.8-1.8c-0.5-1.1-0.3-2.3,0.4-3.3l114.8-137.2c0.6-0.7,1.5-1.1,2.3-1.1
				c0.4,0,0.9,0.1,1.3,0.3c1.3,0.6,1.9,2,1.7,3.4l-22.3,108.4c-0.2,0.9,0.1,1.7,0.8,2.5c0.8,0.8,2,1.3,3.3,1.3h49.9
				c1.2,0,2.3,0.7,2.8,1.8c0.5,1.1,0.3,2.3-0.4,3.3l-114.8,137.2C1673-1523.9,1672.2-1523.5,1671.3-1523.5z"/>
			<path d="M1751.3-1779.6l-22.3,108.4c-0.4,1.8,0.2,3.7,1.6,5.2c1.4,1.4,3.4,2.3,5.5,2.3h49.9l-114.8,137.2l22.3-108.4
				c0.4-1.8-0.2-3.7-1.6-5.2c-1.4-1.4-3.4-2.3-5.5-2.3h-49.9L1751.3-1779.6 M1751.4-1785.7c-1.8,0-3.5,0.8-4.7,2.2l-114.8,137.2
				c-1.5,1.8-1.9,4.4-0.8,6.5c1,2.2,3.2,3.5,5.5,3.5h49.9c0.5,0,0.9,0.2,1,0.3l-22.3,108.2c-0.6,2.7,0.8,5.5,3.3,6.7
				c0.8,0.4,1.8,0.6,2.7,0.6c1.8,0,3.5-0.8,4.7-2.2l114.8-137.2c1.5-1.8,1.9-4.4,0.8-6.5s-3.2-3.5-5.5-3.5h-49.9
				c-0.5,0-0.9-0.2-1-0.3l22.3-108.2c0.6-2.7-0.8-5.5-3.3-6.7C1753.2-1785.5,1752.2-1785.7,1751.4-1785.7L1751.4-1785.7z"/>
		</g>
	</g>
	<g>
		<path class="st3" d="M2100.1-360.7l-141.7,140.9c-12,12.7-32.1,13.2-44.7,1.1c-0.4-0.4-0.7-0.7-1.1-1.1l-23.8-23.7
			c-12.7-12.1-13.2-32.1-1.1-44.8c0.4-0.4,0.7-0.7,1.1-1.1l130.2-131c1.6-1.6,1.6-3.3,1.6-5.7c0-2.4,0-4.9-1.6-5.7l-130.1-131
			c-12.7-12-13.2-32.1-1.1-44.7c0.4-0.4,0.7-0.7,1.1-1.1l23.8-23.8c12.1-12.7,32.1-13.1,44.8-1.1c0.4,0.3,0.7,0.7,1.1,1.1
			l141.7,140.9c14.7,14.7,31.1,36.9,31.1,65.5C2131.3-397.5,2114.8-375.4,2100.1-360.7z"/>
	</g>
	<g>
		<g>
			<path class="st3" d="M1689.4-397.4c0.6-3.2-0.3-6.4-2.7-8.9c-2.3-2.5-5.8-3.9-9.5-3.9h-85.9l197.4-236l-38.4,186.4
				c-0.6,3.2,0.3,6.4,2.7,8.9c2.3,2.5,5.8,3.9,9.5,3.9h85.9L1651-211L1689.4-397.4z"/>
		</g>
	</g>
	<g>
		<g>
			
				<linearGradient id="SVGID_00000101809714896593852140000015295624549600722092_" gradientUnits="userSpaceOnUse" x1="3804.0208" y1="92.41" x2="3804.0208" y2="596.2721">
				<stop  offset="0" style="stop-color:#FF8500"/>
				<stop  offset="1" style="stop-color:#E26600"/>
			</linearGradient>
			<path style="fill:url(#SVGID_00000101809714896593852140000015295624549600722092_);" d="M3768.8,380.4c0.7-3.7-0.4-7.4-3.1-10.3
				c-2.7-2.9-6.7-4.5-11-4.5h-99.5l228.5-273.2l-44.4,215.9c-0.7,3.7,0.4,7.4,3.1,10.3c2.7,2.9,6.7,4.5,11,4.5h99.5l-228.5,273.2
				L3768.8,380.4z"/>
		</g>
	</g>
	<g>
		<path d="M2127.1,427.3l-148.4,147.5c-12.6,13.3-33.6,13.8-46.8,1.2c-0.4-0.4-0.8-0.8-1.2-1.2l-24.9-24.8
			c-13.3-12.6-13.8-33.6-1.1-46.9c0.4-0.4,0.8-0.8,1.1-1.1l136.3-137.2c1.7-1.7,1.7-3.4,1.7-6s0-5.1-1.7-6L1906,215.6
			c-13.3-12.6-13.8-33.6-1.2-46.8c0.4-0.4,0.8-0.8,1.2-1.2l24.9-24.9c12.6-13.3,33.6-13.8,46.9-1.1c0.4,0.4,0.8,0.7,1.1,1.1
			l148.4,147.5c15.4,15.4,32.6,38.6,32.6,68.6C2159.8,388.8,2142.6,411.9,2127.1,427.3z"/>
	</g>
	<g>
		<g>
			<path d="M1697.2,388.9c0.7-3.3-0.4-6.7-2.8-9.3c-2.5-2.6-6.1-4.1-9.9-4.1h-89.9l206.6-247L1761,323.7c-0.7,3.3,0.4,6.7,2.8,9.3
				c2.5,2.6,6.1,4.1,9.9,4.1h89.9l-206.6,247L1697.2,388.9z"/>
		</g>
	</g>
	<rect x="1547.1" y="866.4" class="st1" width="2928.5" height="699.4"/>
	<g>
		
			<linearGradient id="SVGID_00000076568918141318594790000005182894476642817199_" gradientUnits="userSpaceOnUse" x1="6925.6172" y1="120.0442" x2="6925.6172" y2="572.6231">
			<stop  offset="0" style="stop-color:#FF8500"/>
			<stop  offset="1" style="stop-color:#E26600"/>
		</linearGradient>
		<path style="fill:url(#SVGID_00000076568918141318594790000005182894476642817199_);" d="M7025.1,414.9l-148.4,147.5
			c-12.6,13.3-33.6,13.8-46.8,1.2c-0.4-0.4-0.8-0.8-1.2-1.2l-24.9-24.8c-13.3-12.6-13.8-33.6-1.1-46.9c0.4-0.4,0.8-0.8,1.1-1.1
			l136.3-137.2c1.7-1.7,1.7-3.4,1.7-6c0-2.6,0-5.1-1.7-6l-136.2-137.1c-13.3-12.6-13.8-33.6-1.2-46.8c0.4-0.4,0.8-0.8,1.2-1.2
			l24.9-24.9c12.6-13.3,33.6-13.8,46.9-1.1c0.4,0.4,0.8,0.7,1.1,1.1l148.4,147.5c15.4,15.4,32.6,38.6,32.6,68.6
			C7057.7,376.3,7040.5,399.5,7025.1,414.9z"/>
	</g>
	<g>
		<g>
			
				<linearGradient id="SVGID_00000124862558643643317480000014223146462738354869_" gradientUnits="userSpaceOnUse" x1="6627.0547" y1="116.059" x2="6627.0547" y2="571.5633">
				<stop  offset="0" style="stop-color:#FF8500"/>
				<stop  offset="1" style="stop-color:#E26600"/>
			</linearGradient>
			<path style="fill:url(#SVGID_00000124862558643643317480000014223146462738354869_);" d="M6595.2,376.4c0.7-3.3-0.4-6.7-2.8-9.3
				c-2.5-2.6-6.1-4.1-9.9-4.1h-89.9l206.6-247l-40.2,195.2c-0.7,3.3,0.4,6.7,2.8,9.3c2.5,2.6,6.1,4.1,9.9,4.1h89.9l-206.6,247
				L6595.2,376.4z"/>
		</g>
	</g>
	<polyline class="st7" points="3997.6,250.3 4105.3,356.2 3997.6,462.1 	"/>
	<polyline class="st7" points="3610.5,462.2 3502.8,356.3 3610.5,250.4 	"/>
	<g>
		<g>
			<g>
				
					<linearGradient id="SVGID_00000022547160289591540210000012334495900632860067_" gradientUnits="userSpaceOnUse" x1="1967.0911" y1="941.8714" x2="1967.0911" y2="1445.7335">
					<stop  offset="0" style="stop-color:#FF8500"/>
					<stop  offset="1" style="stop-color:#E26600"/>
				</linearGradient>
				<path style="fill:url(#SVGID_00000022547160289591540210000012334495900632860067_);" d="M1931.8,1229.9
					c0.7-3.7-0.4-7.4-3.1-10.3c-2.7-2.9-6.7-4.5-11-4.5h-99.5l228.5-273.2l-44.4,215.9c-0.7,3.7,0.4,7.4,3.1,10.3
					c2.7,2.9,6.7,4.5,11,4.5h99.5l-228.5,273.2L1931.8,1229.9z"/>
			</g>
		</g>
		<polyline class="st7" points="2160.6,1099.8 2268.4,1205.6 2160.6,1311.6 		"/>
		<polyline class="st7" points="1773.6,1311.6 1665.8,1205.8 1773.6,1099.8 		"/>
	</g>
	<g>
		<g>
			
				<linearGradient id="SVGID_00000028304219430856824280000010931603576324027571_" gradientUnits="userSpaceOnUse" x1="4839" y1="107.4233" x2="4839" y2="611.2853">
				<stop  offset="0" style="stop-color:#FF8500"/>
				<stop  offset="1" style="stop-color:#E26600"/>
			</linearGradient>
			<path style="fill:url(#SVGID_00000028304219430856824280000010931603576324027571_);" d="M4803.7,395.4c0.7-3.7-0.4-7.4-3.1-10.3
				c-2.7-2.9-6.7-4.5-11-4.5h-99.5l228.5-273.2l-44.4,215.9c-0.7,3.7,0.4,7.4,3.1,10.3s6.7,4.5,11,4.5h99.5l-228.5,273.2
				L4803.7,395.4z"/>
		</g>
	</g>
	<polyline class="st7" points="5032.5,265.3 5140.3,371.2 5032.5,477.1 	"/>
	<polyline class="st7" points="4645.5,477.2 4537.7,371.3 4645.5,265.4 	"/>
</g>
<g id="Layer_1">
	<title>CompanyLogo</title>
	<path class="st10" d="M2696.9,496.6c-8.1,8.5-21.5,8.8-30,0.7c-0.3-0.2-0.5-0.5-0.7-0.7l-94.9-94.5c-9.9-9.9-20.9-24.7-20.9-43.9
		s11-34,20.9-43.9l94.9-94.4c8.1-8.5,21.5-8.8,30-0.7c0.2,0.2,0.5,0.5,0.7,0.7l15.9,15.9c8.5,8.1,8.8,21.5,0.7,30
		c-0.2,0.3-0.5,0.5-0.7,0.7l-87.3,87.8c-0.8,1.1-1.2,2.5-1.1,3.8c0,1.3,0.4,2.7,1.1,3.8l87.3,87.8c8.5,8.1,8.8,21.5,0.7,30
		c-0.2,0.3-0.5,0.5-0.7,0.7L2696.9,496.6z"/>
	<path class="st10" d="M2978.5,200.7L2791.9,524c-7.1,12.6-15.4,19.2-27.4,19.2h-20.3c-8.2,0-14.8-6.6-14.8-15.4
		c-0.1-4.3,1-8.5,3.3-12.1l185-321.1c7.1-12.6,15.4-19.2,27.4-19.2h20.3c8.8,0,15.9,6,15.9,14.8
		C2981.3,194,2980.4,197.6,2978.5,200.7z"/>
	<path class="st10" d="M3166.7,402.2l-95,94.4c-8.1,8.5-21.5,8.8-30,0.7c-0.3-0.2-0.5-0.5-0.7-0.7l-15.9-15.9
		c-8.5-8.1-8.8-21.5-0.7-30c0.2-0.3,0.5-0.5,0.7-0.7l87.3-87.8c1.1-1.1,1.1-2.2,1.1-3.8c0-1.6,0-3.3-1.1-3.8l-87.2-87.8
		c-8.5-8.1-8.8-21.5-0.7-30c0.2-0.3,0.5-0.5,0.7-0.7L3041,220c8.1-8.5,21.5-8.8,30-0.7c0.2,0.2,0.5,0.5,0.7,0.7l95,94.4
		c9.9,9.9,20.9,24.7,20.9,43.9C3187.6,377.5,3176.6,392.3,3166.7,402.2z"/>
	<rect x="2065.5" y="-1345.2" style="fill:none;" width="2556.3" height="375.3"/>
	<text transform="matrix(1 0 0 1 2065.5347 -1128.1532)" class="st3" style="font-family:'TetraITCStd-Light'; font-size:324px;">RapDv</text>
	<path class="st10" d="M1684.9-1124.9c-5.5,5.8-14.8,6.1-20.6,0.5c-0.2-0.2-0.3-0.3-0.5-0.5l-65.2-64.8
		c-6.8-6.8-14.3-16.9-14.3-30.1c0-13.2,7.5-23.3,14.3-30.1l65.2-64.8c5.6-5.8,14.8-6,20.6-0.5c0.2,0.2,0.3,0.3,0.5,0.5l10.9,10.9
		c5.8,5.5,6.1,14.8,0.5,20.6c-0.2,0.2-0.3,0.3-0.5,0.5l-59.9,60.3c-0.5,0.8-0.8,1.7-0.8,2.6c0,0.9,0.3,1.8,0.8,2.6l59.9,60.3
		c5.8,5.5,6.1,14.8,0.5,20.6c-0.2,0.2-0.3,0.3-0.5,0.5L1684.9-1124.9z"/>
	<path class="st10" d="M1878.1-1327.9l-128.1,221.9c-4.9,8.6-10.6,13.2-18.8,13.2h-13.9c-5.6,0-10.2-4.5-10.2-10.5
		c-0.1-2.9,0.7-5.8,2.3-8.3l127-220.3c4.9-8.7,10.5-13.2,18.8-13.2h13.9c6,0,10.9,4.1,10.9,10.2
		C1880.1-1332.5,1879.4-1330.1,1878.1-1327.9z"/>
	<path class="st10" d="M2007.3-1189.7l-65.2,64.8c-5.5,5.8-14.8,6.1-20.6,0.5c-0.2-0.2-0.3-0.3-0.5-0.5l-10.9-10.9
		c-5.8-5.5-6.1-14.8-0.5-20.6c0.2-0.2,0.3-0.3,0.5-0.5l59.9-60.3c0.7-0.7,0.7-1.5,0.7-2.6c0-1.1,0-2.3-0.7-2.6l-59.9-60.3
		c-5.8-5.5-6.1-14.8-0.5-20.6c0.2-0.2,0.3-0.3,0.5-0.5l10.9-10.9c5.6-5.8,14.8-6,20.6-0.5c0.2,0.2,0.3,0.3,0.5,0.5l65.2,64.8
		c6.8,6.8,14.3,17,14.3,30.1S2014.1-1196.5,2007.3-1189.7z"/>
	<rect x="2040.3" y="-2207.3" style="fill:none;" width="2556.3" height="375.3"/>
	
		<text transform="matrix(1 0 0 1 2040.2805 -1970.7837)" style="fill:#FFFFFF;stroke:#000000;stroke-width:8;stroke-miterlimit:10; font-family:'Miami'; font-size:304px; letter-spacing:6;">RapDv</text>
	<rect x="2041.7" y="-1763" style="fill:none;" width="2556.3" height="375.3"/>
	
		<text transform="matrix(1 0 0 1 2041.7065 -1545.9044)" style="fill:#FFFFFF;stroke:#000000;stroke-width:8;stroke-miterlimit:10; font-family:'TetraITCStd-Light'; font-size:324px;">RapDv</text>
	<g>
		<path class="st3" d="M1811.4-2363.3c-5.5,0-10.8-2.1-14.8-5.9c-0.3-0.2-0.5-0.5-0.8-0.8l-13.8-13.7c-8.5-8.1-8.9-21.7-0.7-30.3
			c0.2-0.3,0.5-0.5,0.7-0.7l75.7-76.1c0.1-0.1,0.1-0.7,0.1-1.2c0-0.3,0-0.8,0-1.1c0,0-75.7-76.2-75.7-76.2
			c-8.5-8.1-8.8-21.7-0.7-30.3c0.2-0.3,0.5-0.5,0.8-0.8l13.8-13.8c4-4.2,9.6-6.6,15.5-6.6c5.5,0,10.8,2.1,14.8,5.9
			c0.2,0.2,0.5,0.5,0.7,0.7l82.4,81.9c12.6,12.6,19,26.1,19,40.3c0,14.1-6.4,27.6-19,40.2l-82.4,81.9
			C1822.9-2365.7,1817.4-2363.3,1811.4-2363.3z"/>
		<path d="M1811.5-2617.8c4.6,0,9.1,1.7,12.7,5.1c0.2,0.2,0.4,0.4,0.6,0.6l82.4,81.9c8.6,8.6,18.1,21.4,18.1,38.1
			s-9.6,29.5-18.1,38.1l-82.4,81.9c-3.6,3.8-8.5,5.7-13.3,5.7c-4.6,0-9.1-1.7-12.7-5.1c-0.2-0.2-0.4-0.4-0.6-0.6l-13.8-13.8
			c-7.4-7-7.7-18.7-0.6-26c0.2-0.2,0.4-0.4,0.6-0.6l75.7-76.2c0.9-0.9,0.9-1.9,0.9-3.3c0-1.4,0-2.9-0.9-3.3l-75.7-76.2
			c-7.4-7-7.7-18.7-0.6-26c0.2-0.2,0.4-0.4,0.6-0.6l13.8-13.8C1801.8-2615.9,1806.6-2617.8,1811.5-2617.8 M1811.5-2623.9
			C1811.5-2623.9,1811.5-2623.9,1811.5-2623.9c-6.8,0-13,2.7-17.7,7.5l-13.7,13.7c-0.3,0.3-0.5,0.5-0.8,0.8
			c-9.3,9.8-8.9,25.3,0.8,34.6l74.7,75.2l-74.7,75.2c-0.3,0.3-0.5,0.5-0.8,0.8c-4.5,4.7-6.9,11-6.8,17.5c0.2,6.5,2.8,12.6,7.5,17.1
			l13.7,13.7c0.3,0.3,0.5,0.5,0.8,0.8c4.6,4.4,10.6,6.8,16.9,6.8c6.7,0,13.1-2.8,17.7-7.5l82.4-81.9c13.2-13.2,19.9-27.5,19.9-42.4
			c0-15-6.7-29.2-19.9-42.4l-82.4-81.9c-0.2-0.3-0.5-0.5-0.8-0.8C1823.8-2621.5,1817.8-2623.9,1811.5-2623.9L1811.5-2623.9z"/>
	</g>
	<g>
		<g>
			<path class="st3" d="M1646-2363.9c-0.4,0-0.9-0.1-1.3-0.3c-1.3-0.6-1.9-2-1.7-3.4l22.3-108.4c0.2-0.9-0.1-1.7-0.8-2.5
				c-0.8-0.8-2-1.3-3.3-1.3h-49.9c-1.2,0-2.3-0.7-2.8-1.8c-0.5-1.1-0.3-2.3,0.4-3.3l114.8-137.2c0.6-0.7,1.5-1.1,2.3-1.1
				c0.4,0,0.9,0.1,1.3,0.3c1.3,0.6,1.9,2,1.7,3.4l-22.3,108.4c-0.2,0.9,0.1,1.7,0.8,2.5c0.8,0.8,2,1.3,3.3,1.3h49.9
				c1.2,0,2.3,0.7,2.8,1.8c0.5,1.1,0.3,2.3-0.4,3.3L1648.4-2365C1647.8-2364.3,1646.9-2363.9,1646-2363.9z"/>
			<path d="M1726.1-2620l-22.3,108.4c-0.4,1.8,0.2,3.7,1.6,5.2c1.4,1.4,3.4,2.3,5.5,2.3h49.9L1646-2366.9l22.3-108.4
				c0.4-1.8-0.2-3.7-1.6-5.2c-1.4-1.4-3.4-2.3-5.5-2.3h-49.9L1726.1-2620 M1726.1-2626.1c-1.8,0-3.5,0.8-4.7,2.2l-114.8,137.2
				c-1.5,1.8-1.9,4.4-0.8,6.5c1,2.2,3.2,3.5,5.5,3.5h49.9c0.5,0,0.9,0.2,1,0.3l-22.3,108.2c-0.6,2.7,0.8,5.5,3.3,6.7
				c0.8,0.4,1.8,0.6,2.7,0.6c1.8,0,3.5-0.8,4.7-2.2l114.8-137.2c1.5-1.8,1.9-4.4,0.8-6.5c-1-2.2-3.2-3.5-5.5-3.5h-49.9
				c-0.5,0-0.9-0.2-1-0.3l22.3-108.2c0.6-2.7-0.8-5.5-3.3-6.7C1727.9-2625.9,1727-2626.1,1726.1-2626.1L1726.1-2626.1z"/>
		</g>
	</g>
	<rect x="2038.5" y="-2613.3" style="fill:none;" width="2556.3" height="375.3"/>
	
		<text transform="matrix(1 0 0 1 2038.5159 -2395.0278)" style="fill:#FFFFFF;stroke:#000000;stroke-width:8;stroke-miterlimit:10; font-family:'HemiHeadRg-BoldItalic'; font-size:304px; letter-spacing:6;">RapDv</text>
	<g>
		<path class="st3" d="M2670.7,1385.3l26-125c0.4-1.9,0.7-3.5,0.8-4.8c0.2-1.3,0.3-2.5,0.3-3.7c0-6-5.3-9.1-15.8-9.1h-123.9
			l-30,142.6h-86l59.4-280h86l-15.8,74.1h117.7c8.3,0,13.9-1.3,16.7-4c2.8-2.6,5.2-7.9,7.1-15.8l13.6-62.2c0.4-1.9,0.7-3.6,0.8-5.1
			c0.2-1.5,0.3-2.8,0.3-4c0-4.5-1.3-7.5-4-9.1c-2.6-1.5-7.2-2.3-13.6-2.3h-203.1l15.8-74.7h243.3c19.6,0,33.7,3.5,42.4,10.5
			c8.7,7,13,17.6,13,32c0,3.4-0.3,7-0.8,10.7c-0.6,3.8-1.2,7.7-2,11.9l-17.5,83.2c-4.2,19.6-11.7,33.5-22.6,41.6
			c-10.9,8.1-23,12.9-36.2,14.4c12.1,0.8,22.2,3.5,30.5,8.2c8.3,4.7,12.4,13.1,12.4,25.2c0,1.9,0,3.9,0,5.9c0,2.1-0.4,4.2-1.1,6.5
			l-27.7,132.9H2670.7z"/>
		<path class="st3" d="M2875.5,1385.3c-14.3,0-24.7-2.7-31.1-8.2c-6.4-5.5-9.6-13.7-9.6-24.6c0-5.3,0.9-12.3,2.8-20.9l14.1-67.9
			c2.3-10.6,4.9-19.4,7.9-26.6c3-7.2,6.8-12.8,11.3-17c4.5-4.1,10-7.1,16.4-8.8c6.4-1.7,14.1-2.5,23.2-2.5H3056l-10.2,48.7h-104.1
			c-5.3,0-9.1,0.9-11.3,2.8c-2.3,1.9-4,5.9-5.1,11.9l-6.2,30c-0.4,1.9-0.7,3.4-0.8,4.5c-0.2,1.1-0.3,2.3-0.3,3.4
			c0,4.9,3.6,7.4,10.7,7.4h132.4l30-140.3c0.4-1.5,0.6-3.6,0.6-6.2c0-3-0.9-5.4-2.8-7.1c-1.9-1.7-5.5-2.5-10.7-2.5h-194l13-62.2
			h234.2c16.6,0,28.3,2.7,35.1,8.2c6.8,5.5,10.2,14.1,10.2,25.7c0,5.3-0.9,12.6-2.8,22.1l-48.7,230.2H2875.5z"/>
		<path class="st3" d="M3302.1,1385.3l14.1-67.9h95c5.7,0,9.7-1,12.2-3.1c2.4-2.1,4.4-6.3,5.9-12.7l24.9-116
			c0.4-1.9,0.6-4.3,0.6-7.4c0-3.4-0.8-5.7-2.5-7.1c-1.7-1.3-4.8-2-9.3-2h-123.3l-71.8,336h-79.2l86.6-406.2h242.1
			c16.6,0,28.3,2.8,35.1,8.5c6.8,5.7,10.2,14.3,10.2,26c0,7.2-0.8,14.3-2.3,21.5l-36.8,174.2c-4.2,19.6-11.8,33.9-22.9,42.7
			c-11.1,8.9-25.7,13.3-43.8,13.3H3302.1z"/>
		<path class="st3" d="M3561.2,1385.3l59.4-279.5h84.9l-43.6,204.8h120.5c20,0,32.6-12.3,37.9-36.8l33.9-159.5
			c1.1-4.5,1.7-8.9,1.7-13c0-15.8-8.1-23.8-24.3-23.8h-205.4l15.8-75.2h221.2c55.8,0,83.7,22.6,83.7,67.9c0,9.4-1.1,19.4-3.4,30
			l-40.2,187.3c-6.8,32.1-20.2,56.4-40.2,73c-20,16.6-47,24.9-80.9,24.9H3561.2z"/>
		<path class="st3" d="M4042.6,1385.3l-50.9-286.3h85.4l32.8,208.2l125.6-208.2h81.5l-179.3,286.3H4042.6z"/>
	</g>
	<g>
		<path class="st3" d="M2420-235.7l26-125c0.4-1.9,0.7-3.5,0.8-4.8c0.2-1.3,0.3-2.5,0.3-3.7c0-6-5.3-9.1-15.8-9.1h-123.9l-30,142.6
			h-86l59.4-280h86l-15.8,74.1h117.7c8.3,0,13.9-1.3,16.7-4c2.8-2.6,5.2-7.9,7.1-15.8l13.6-62.2c0.4-1.9,0.7-3.6,0.8-5.1
			c0.2-1.5,0.3-2.8,0.3-4c0-4.5-1.3-7.5-4-9.1c-2.6-1.5-7.2-2.3-13.6-2.3h-203.1l15.8-74.7h243.3c19.6,0,33.7,3.5,42.4,10.5
			c8.7,7,13,17.6,13,32c0,3.4-0.3,7-0.8,10.7c-0.6,3.8-1.2,7.7-2,11.9l-17.5,83.2c-4.2,19.6-11.7,33.5-22.6,41.6
			c-10.9,8.1-23,12.9-36.2,14.4c12.1,0.8,22.2,3.5,30.5,8.2c8.3,4.7,12.4,13.1,12.4,25.2c0,1.9,0,3.9,0,5.9c0,2.1-0.4,4.2-1.1,6.5
			L2506-235.7H2420z"/>
		<path class="st3" d="M2624.8-235.7c-14.3,0-24.7-2.7-31.1-8.2c-6.4-5.5-9.6-13.7-9.6-24.6c0-5.3,0.9-12.3,2.8-20.9l14.1-67.9
			c2.3-10.6,4.9-19.4,7.9-26.6c3-7.2,6.8-12.8,11.3-17c4.5-4.1,10-7.1,16.4-8.8c6.4-1.7,14.1-2.5,23.2-2.5h145.4l-10.2,48.7H2691
			c-5.3,0-9.1,0.9-11.3,2.8c-2.3,1.9-4,5.9-5.1,11.9l-6.2,30c-0.4,1.9-0.7,3.4-0.8,4.5c-0.2,1.1-0.3,2.3-0.3,3.4
			c0,4.9,3.6,7.4,10.7,7.4h132.4l30-140.3c0.4-1.5,0.6-3.6,0.6-6.2c0-3-0.9-5.4-2.8-7.1c-1.9-1.7-5.5-2.5-10.7-2.5h-194l13-62.2
			h234.2c16.6,0,28.3,2.7,35.1,8.2c6.8,5.5,10.2,14.1,10.2,25.7c0,5.3-0.9,12.6-2.8,22.1l-48.7,230.2H2624.8z"/>
		<path class="st3" d="M3051.3-235.7l14.1-67.9h95c5.7,0,9.7-1,12.2-3.1c2.4-2.1,4.4-6.3,5.9-12.7l24.9-116c0.4-1.9,0.6-4.3,0.6-7.4
			c0-3.4-0.8-5.7-2.5-7.1c-1.7-1.3-4.8-2-9.3-2h-123.3l-71.8,336h-79.2l86.6-406.2h242.1c16.6,0,28.3,2.8,35.1,8.5
			c6.8,5.7,10.2,14.3,10.2,26c0,7.2-0.8,14.3-2.3,21.5l-36.8,174.2c-4.2,19.6-11.8,33.9-22.9,42.7c-11.1,8.9-25.7,13.3-43.8,13.3
			H3051.3z"/>
		<path class="st3" d="M3310.4-235.7l59.4-279.5h84.9l-43.6,204.8h120.5c20,0,32.6-12.3,37.9-36.8l33.9-159.5
			c1.1-4.5,1.7-8.9,1.7-13c0-15.8-8.1-23.8-24.3-23.8h-205.4l15.8-75.2h221.2c55.8,0,83.7,22.6,83.7,67.9c0,9.4-1.1,19.4-3.4,30
			l-40.2,187.3c-6.8,32.1-20.2,56.4-40.2,73c-20,16.6-47,24.9-80.9,24.9H3310.4z"/>
		<path class="st3" d="M3791.9-235.7L3740.9-522h85.4l32.8,208.2L3984.8-522h81.5l-179.3,286.3H3791.9z"/>
	</g>
</g>
</svg>
